<?xml version="1.0" encoding="UTF-8" standalone="no"?>
<!DOCTYPE svg PUBLIC "-//W3C//DTD SVG 1.1//EN"
 "http://www.w3.org/Graphics/SVG/1.1/DTD/svg11.dtd">
<!-- Generated by graphviz version 2.43.0 (0)
 -->
<!-- Title: %3 Pages: 1 -->
<svg width="640pt" height="402pt"
 viewBox="0.00 0.00 640.00 402.00" xmlns="http://www.w3.org/2000/svg" xmlns:xlink="http://www.w3.org/1999/xlink">
<g id="graph0" class="graph" transform="scale(1 1) rotate(0) translate(4 398)">
<title>%3</title>
<polygon fill="white" stroke="transparent" points="-4,4 -4,-398 636,-398 636,4 -4,4"/>
<!-- LLM -->
<g id="node1" class="node">
<title>LLM</title>
<polygon fill="lightblue" stroke="black" points="495.5,-394 280.5,-394 280.5,-356 495.5,-356 495.5,-394"/>
<text text-anchor="middle" x="388" y="-378.8" font-family="Times,serif" font-size="14.00">LLM Layer</text>
<text text-anchor="middle" x="388" y="-363.8" font-family="Times,serif" font-size="14.00">(Goal Reasoning / Dialogue)</text>
</g>
<!-- FSM -->
<g id="node2" class="node">
<title>FSM</title>
<polygon fill="lightgreen" stroke="black" points="409.5,-305 160.5,-305 160.5,-267 409.5,-267 409.5,-305"/>
<text text-anchor="middle" x="285" y="-289.8" font-family="Times,serif" font-size="14.00">FSM Layer</text>
<text text-anchor="middle" x="285" y="-274.8" font-family="Times,serif" font-size="14.00">(State Machine / Scenario Logic)</text>
</g>
<!-- LLM&#45;&gt;FSM -->
<g id="edge1" class="edge">
<title>LLM&#45;&gt;FSM</title>
<path fill="none" stroke="black" d="M338.77,-355.82C329.53,-350.96 320.45,-345.05 313,-338 306.07,-331.44 300.44,-322.78 296.1,-314.46"/>
<polygon fill="black" stroke="black" points="299.21,-312.85 291.74,-305.34 292.9,-315.87 299.21,-312.85"/>
<text text-anchor="middle" x="391" y="-326.8" font-family="Times,serif" font-size="14.00">Scenario / Commands</text>
</g>
<!-- PID -->
<g id="node3" class="node">
<title>PID</title>
<polygon fill="lightyellow" stroke="black" points="393.5,-216 156.5,-216 156.5,-178 393.5,-178 393.5,-216"/>
<text text-anchor="middle" x="275" y="-200.8" font-family="Times,serif" font-size="14.00">PID Layer</text>
<text text-anchor="middle" x="275" y="-185.8" font-family="Times,serif" font-size="14.00">(MIMO PID Controller &#45; 3 Axis)</text>
</g>
<!-- FSM&#45;&gt;PID -->
<g id="edge2" class="edge">
<title>FSM&#45;&gt;PID</title>
<path fill="none" stroke="black" d="M279.61,-266.84C278.16,-261.18 276.78,-254.88 276,-249 275.02,-241.6 274.57,-233.55 274.42,-226.07"/>
<polygon fill="black" stroke="black" points="277.92,-226 274.37,-216.01 270.92,-226.03 277.92,-226"/>
<text text-anchor="middle" x="372.5" y="-237.8" font-family="Times,serif" font-size="14.00">Mode Control / Gain Select</text>
</g>
<!-- Actuators -->
<g id="node5" class="node">
<title>Actuators</title>
<polygon fill="lightgrey" stroke="black" points="290,-127 0,-127 0,-89 290,-89 290,-127"/>
<text text-anchor="middle" x="145" y="-111.8" font-family="Times,serif" font-size="14.00">Actuators</text>
<text text-anchor="middle" x="145" y="-96.8" font-family="Times,serif" font-size="14.00">(PWM Generator → Brushless Motors)</text>
</g>
<!-- PID&#45;&gt;Actuators -->
<g id="edge4" class="edge">
<title>PID&#45;&gt;Actuators</title>
<path fill="none" stroke="black" d="M244.41,-177.93C235.19,-172.33 225.1,-166.03 216,-160 203.28,-151.57 189.59,-141.89 177.66,-133.24"/>
<polygon fill="black" stroke="black" points="179.47,-130.23 169.33,-127.16 175.34,-135.88 179.47,-130.23"/>
<text text-anchor="middle" x="264" y="-148.8" font-family="Times,serif" font-size="14.00">PWM Signals</text>
</g>
<!-- Sensors -->
<g id="node4" class="node">
<title>Sensors</title>
<polygon fill="lightgrey" stroke="black" points="459,-38 193,-38 193,0 459,0 459,-38"/>
<text text-anchor="middle" x="326" y="-22.8" font-family="Times,serif" font-size="14.00">Sensors</text>
<text text-anchor="middle" x="326" y="-7.8" font-family="Times,serif" font-size="14.00">(IMU: Gyroscope + Accelerometer)</text>
</g>
<!-- Sensors&#45;&gt;LLM -->
<g id="edge6" class="edge">
<title>Sensors&#45;&gt;LLM</title>
<path fill="none" stroke="black" stroke-dasharray="5,2" d="M418.24,-38.15C452.41,-50.71 483,-71.79 483,-107 483,-287 483,-287 483,-287 483,-310.51 484.33,-320.18 469,-338 464.92,-342.75 460.09,-346.9 454.85,-350.51"/>
<polygon fill="black" stroke="black" points="453,-347.54 446.33,-355.78 456.68,-353.5 453,-347.54"/>
<text text-anchor="middle" x="557.5" y="-193.3" font-family="Times,serif" font-size="14.00">Perception Feedback</text>
</g>
<!-- Sensors&#45;&gt;PID -->
<g id="edge3" class="edge">
<title>Sensors&#45;&gt;PID</title>
<path fill="none" stroke="black" d="M328.01,-38.29C330.24,-66.09 331.31,-119.96 312,-160 310.25,-163.62 307.98,-167.08 305.43,-170.32"/>
<polygon fill="black" stroke="black" points="302.7,-168.11 298.62,-177.89 307.91,-172.79 302.7,-168.11"/>
<text text-anchor="middle" x="393.5" y="-104.3" font-family="Times,serif" font-size="14.00">Angular Feedback</text>
</g>
<!-- Actuators&#45;&gt;Sensors -->
<g id="edge5" class="edge">
<title>Actuators&#45;&gt;Sensors</title>
<path fill="none" stroke="black" stroke-dasharray="5,2" d="M156.05,-88.93C163.71,-77.86 174.87,-64.28 188,-56 196.98,-50.34 206.82,-45.56 216.99,-41.53"/>
<polygon fill="black" stroke="black" points="218.24,-44.8 226.4,-38.04 215.8,-38.24 218.24,-44.8"/>
<text text-anchor="middle" x="250" y="-59.8" font-family="Times,serif" font-size="14.00">Motion Response</text>
</g>
</g>
</svg>
